<?xml version="1.0" encoding="utf-8" ?>
<svg baseProfile="full" height="700" version="1.1" viewBox="0 0 900 700" width="900" xmlns="http://www.w3.org/2000/svg" xmlns:ev="http://www.w3.org/2001/xml-events" xmlns:xlink="http://www.w3.org/1999/xlink"><defs /><path d="M 694,57 L 389,57 L 338,75 L 308,74 L 304,67 L 298,68 L 288,62 L 286,407 L 276,414 L 276,431 L 267,439 L 267,446 L 277,455 L 279,462 L 286,470 L 283,483 L 289,496 L 286,505 L 275,512 L 267,526 L 269,534 L 252,541 L 254,545 L 242,555 L 241,562 L 232,566 L 226,565 L 217,577 L 226,585 L 213,593 L 220,597 L 211,601 L 210,619 L 201,623 L 208,631 L 202,635 L 227,640 L 233,634 L 230,621 L 236,621 L 248,626 L 263,624 L 264,631 L 270,634 L 279,624 L 279,618 L 283,622 L 307,618 L 339,631 L 350,640 L 369,619 L 379,618 L 392,610 L 408,624 L 416,624 L 416,629 L 423,631 L 427,623 L 438,618 L 439,603 L 451,597 L 448,592 L 458,592 L 467,586 L 473,591 L 477,601 L 510,613 L 527,603 L 530,584 L 536,575 L 547,569 L 561,567 L 570,558 L 576,543 L 586,541 L 604,525 L 600,513 L 601,502 L 622,500 L 641,507 L 669,495 L 692,492 L 697,479 L 685,474 L 691,467 L 685,454 L 692,447 Z" fill="none" stroke="#7be7ff" stroke-width="3" /></svg>